<svg width="50" height="50" viewBox="0 0 50 50" fill="none" xmlns="http://www.w3.org/2000/svg">
<circle cx="25" cy="25" r="25" fill="#3B82F6"/>
<path d="M25 7C27.7429 7 30.0952 7.50227 32.0571 8.50681C34.0186 9.51137 34.9996 10.7091 35 12.1V14.5727C35 16.0669 34.019 17.3419 32.0571 18.3977C30.0951 19.4542 27.7427 19.9823 25 19.9818C22.2571 19.9818 19.9047 19.4538 17.9428 18.3977C15.9808 17.3419 14.9999 16.0669 15 14.5727V12.1C15 10.709 15.981 9.51132 17.9428 8.50681C19.9045 7.50223 22.2569 6.99996 25 7ZM34.6571 19.6727C34.8093 19.261 34.9236 19.261 35 19.6727V24.1546C35 25.9064 34.0285 27.3746 32.0856 28.5591C30.1428 29.7441 27.7905 30.3365 25.0286 30.3363C22.2665 30.3363 19.9046 29.7439 17.9428 28.5591C15.9808 27.3747 14.9998 25.9065 15 24.1546V19.6727C15 19.1577 15.1333 19.1577 15.3999 19.6727C15.9714 20.8577 17.1524 21.8236 18.9429 22.5705C20.733 23.3178 22.752 23.6913 25 23.6909C27.2473 23.6909 29.2663 23.3174 31.057 22.5705C32.8473 21.8237 34.0473 20.8578 34.6571 19.6727ZM34.5999 29.4863C34.8665 28.9714 34.9998 28.9972 35 29.5636V33.4273C35 35.3337 34.0095 37.0724 32.0285 38.6432C30.0473 40.214 27.714 40.9996 25.0286 41C22.3429 41 20 40.2144 18 38.6432C16 37.0724 15 35.3337 15 33.4273V29.5636C15 29.3577 15.0381 29.2289 15.1143 29.1773C15.1902 29.126 15.2858 29.2292 15.4 29.4863C16.0094 30.826 17.1999 31.9336 18.9715 32.8091C20.7428 33.6851 22.7523 34.1229 25 34.1227C27.2473 34.1227 29.2568 33.6849 31.0284 32.8091C32.8 31.9337 33.9905 30.8261 34.5999 29.4863Z" fill="white"/>
</svg>
