<svg width="50" height="50" viewBox="0 0 50 50" fill="none" xmlns="http://www.w3.org/2000/svg">
<path d="M25 50C11.1929 50 0 38.8071 0 25C0 11.1929 11.1929 0 25 0C38.8071 0 50 11.1929 50 25C50 38.8071 38.8071 50 25 50Z" fill="#3B82F6"/>
<path d="M37.2718 16.7312H25.0033H17.829L18.2927 21.3022H25.0033H36.8081L35.4169 35.0084L25.0033 37.5429L24.99 37.5458L14.583 35.0084L13.8543 27.8394H18.9551L19.3328 31.5591L24.9966 32.9008L25.0033 32.8985L30.6672 31.5568L31.2568 25.7676H25.0033H13.6423L12.2711 12.2711H25.0033H37.7289L37.2718 16.7312Z" fill="#FAFAFA"/>
</svg>
