<svg width="280" height="69" viewBox="0 0 280 69" fill="none" xmlns="http://www.w3.org/2000/svg">
<g clip-path="url(#clip0_8_2)">
<path d="M4.16305 8.4091C6.46224 8.4091 8.3261 6.52666 8.3261 4.20455C8.3261 1.88244 6.46224 0 4.16305 0C1.86386 0 0 1.88244 0 4.20455C0 6.52666 1.86386 8.4091 4.16305 8.4091Z" fill="white" fill-opacity="0.06"/>
<path d="M4.16305 58.8631C6.46224 58.8631 8.3261 56.9807 8.3261 54.6586C8.3261 52.3365 6.46224 50.454 4.16305 50.454C1.86386 50.454 0 52.3365 0 54.6586C0 56.9807 1.86386 58.8631 4.16305 58.8631Z" fill="white" fill-opacity="0.06"/>
<path d="M203.989 8.4091C206.288 8.4091 208.152 6.52666 208.152 4.20455C208.152 1.88244 206.288 0 203.989 0C201.69 0 199.826 1.88244 199.826 4.20455C199.826 6.52666 201.69 8.4091 203.989 8.4091Z" fill="white" fill-opacity="0.06"/>
<path d="M203.989 58.8631C206.288 58.8631 208.152 56.9807 208.152 54.6586C208.152 52.3365 206.288 50.454 203.989 50.454C201.69 50.454 199.826 52.3365 199.826 54.6586C199.826 56.9807 201.69 58.8631 203.989 58.8631Z" fill="white" fill-opacity="0.06"/>
<path d="M4.16305 33.6366C6.46224 33.6366 8.3261 31.7542 8.3261 29.4321C8.3261 27.11 6.46224 25.2275 4.16305 25.2275C1.86386 25.2275 0 27.11 0 29.4321C0 31.7542 1.86386 33.6366 4.16305 33.6366Z" fill="white" fill-opacity="0.06"/>
<path d="M203.989 33.6366C206.288 33.6366 208.152 31.7542 208.152 29.4321C208.152 27.11 206.288 25.2275 203.989 25.2275C201.69 25.2275 199.826 27.11 199.826 29.4321C199.826 31.7542 201.69 33.6366 203.989 33.6366Z" fill="white" fill-opacity="0.06"/>
<path d="M104.076 8.4091C106.375 8.4091 108.239 6.52666 108.239 4.20455C108.239 1.88244 106.375 0 104.076 0C101.777 0 99.9129 1.88244 99.9129 4.20455C99.9129 6.52666 101.777 8.4091 104.076 8.4091Z" fill="white" fill-opacity="0.06"/>
<path d="M104.076 58.8631C106.375 58.8631 108.239 56.9807 108.239 54.6586C108.239 52.3365 106.375 50.454 104.076 50.454C101.777 50.454 99.9129 52.3365 99.9129 54.6586C99.9129 56.9807 101.777 58.8631 104.076 58.8631Z" fill="white" fill-opacity="0.06"/>
<path d="M104.076 33.6366C106.375 33.6366 108.239 31.7542 108.239 29.4321C108.239 27.11 106.375 25.2275 104.076 25.2275C101.777 25.2275 99.9129 27.11 99.9129 29.4321C99.9129 31.7542 101.777 33.6366 104.076 33.6366Z" fill="white" fill-opacity="0.06"/>
<path d="M54.1191 8.4091C56.4183 8.4091 58.2822 6.52666 58.2822 4.20455C58.2822 1.88244 56.4183 0 54.1191 0C51.8199 0 49.9561 1.88244 49.9561 4.20455C49.9561 6.52666 51.8199 8.4091 54.1191 8.4091Z" fill="white" fill-opacity="0.06"/>
<path d="M54.1191 58.8631C56.4183 58.8631 58.2822 56.9807 58.2822 54.6586C58.2822 52.3365 56.4183 50.454 54.1191 50.454C51.8199 50.454 49.9561 52.3365 49.9561 54.6586C49.9561 56.9807 51.8199 58.8631 54.1191 58.8631Z" fill="white" fill-opacity="0.06"/>
<path d="M253.946 8.4091C256.245 8.4091 258.109 6.52666 258.109 4.20455C258.109 1.88244 256.245 0 253.946 0C251.647 0 249.783 1.88244 249.783 4.20455C249.783 6.52666 251.647 8.4091 253.946 8.4091Z" fill="white" fill-opacity="0.06"/>
<path d="M253.946 58.8631C256.245 58.8631 258.109 56.9807 258.109 54.6586C258.109 52.3365 256.245 50.454 253.946 50.454C251.647 50.454 249.783 52.3365 249.783 54.6586C249.783 56.9807 251.647 58.8631 253.946 58.8631Z" fill="white" fill-opacity="0.06"/>
<path d="M54.1191 33.6366C56.4183 33.6366 58.2822 31.7542 58.2822 29.4321C58.2822 27.11 56.4183 25.2275 54.1191 25.2275C51.8199 25.2275 49.9561 27.11 49.9561 29.4321C49.9561 31.7542 51.8199 33.6366 54.1191 33.6366Z" fill="white" fill-opacity="0.06"/>
<path d="M253.946 33.6366C256.245 33.6366 258.109 31.7542 258.109 29.4321C258.109 27.11 256.245 25.2275 253.946 25.2275C251.647 25.2275 249.783 27.11 249.783 29.4321C249.783 31.7542 251.647 33.6366 253.946 33.6366Z" fill="white" fill-opacity="0.06"/>
<path d="M154.032 8.4091C156.331 8.4091 158.195 6.52666 158.195 4.20455C158.195 1.88244 156.331 0 154.032 0C151.733 0 149.869 1.88244 149.869 4.20455C149.869 6.52666 151.733 8.4091 154.032 8.4091Z" fill="white" fill-opacity="0.06"/>
<path d="M154.032 58.8631C156.331 58.8631 158.195 56.9807 158.195 54.6586C158.195 52.3365 156.331 50.454 154.032 50.454C151.733 50.454 149.869 52.3365 149.869 54.6586C149.869 56.9807 151.733 58.8631 154.032 58.8631Z" fill="white" fill-opacity="0.06"/>
<path d="M154.032 33.6366C156.331 33.6366 158.195 31.7542 158.195 29.4321C158.195 27.11 156.331 25.2275 154.032 25.2275C151.733 25.2275 149.869 27.11 149.869 29.4321C149.869 31.7542 151.733 33.6366 154.032 33.6366Z" fill="white" fill-opacity="0.06"/>
<path d="M29.1416 8.4091C31.4408 8.4091 33.3046 6.52666 33.3046 4.20455C33.3046 1.88244 31.4408 0 29.1416 0C26.8424 0 24.9785 1.88244 24.9785 4.20455C24.9785 6.52666 26.8424 8.4091 29.1416 8.4091Z" fill="white" fill-opacity="0.06"/>
<path d="M29.1416 58.8631C31.4408 58.8631 33.3046 56.9807 33.3046 54.6586C33.3046 52.3365 31.4408 50.454 29.1416 50.454C26.8424 50.454 24.9785 52.3365 24.9785 54.6586C24.9785 56.9807 26.8424 58.8631 29.1416 58.8631Z" fill="white" fill-opacity="0.06"/>
<path d="M228.968 8.4091C231.267 8.4091 233.131 6.52666 233.131 4.20455C233.131 1.88244 231.267 0 228.968 0C226.669 0 224.805 1.88244 224.805 4.20455C224.805 6.52666 226.669 8.4091 228.968 8.4091Z" fill="white" fill-opacity="0.06"/>
<path d="M228.968 58.8631C231.267 58.8631 233.131 56.9807 233.131 54.6586C233.131 52.3365 231.267 50.454 228.968 50.454C226.669 50.454 224.805 52.3365 224.805 54.6586C224.805 56.9807 226.669 58.8631 228.968 58.8631Z" fill="white" fill-opacity="0.06"/>
<path d="M29.1416 33.6366C31.4408 33.6366 33.3046 31.7542 33.3046 29.4321C33.3046 27.11 31.4408 25.2275 29.1416 25.2275C26.8424 25.2275 24.9785 27.11 24.9785 29.4321C24.9785 31.7542 26.8424 33.6366 29.1416 33.6366Z" fill="white" fill-opacity="0.06"/>
<path d="M228.968 33.6366C231.267 33.6366 233.131 31.7542 233.131 29.4321C233.131 27.11 231.267 25.2275 228.968 25.2275C226.669 25.2275 224.805 27.11 224.805 29.4321C224.805 31.7542 226.669 33.6366 228.968 33.6366Z" fill="white" fill-opacity="0.06"/>
<path d="M129.054 8.4091C131.353 8.4091 133.217 6.52666 133.217 4.20455C133.217 1.88244 131.353 0 129.054 0C126.755 0 124.891 1.88244 124.891 4.20455C124.891 6.52666 126.755 8.4091 129.054 8.4091Z" fill="white" fill-opacity="0.06"/>
<path d="M129.054 58.8631C131.353 58.8631 133.217 56.9807 133.217 54.6586C133.217 52.3365 131.353 50.454 129.054 50.454C126.755 50.454 124.891 52.3365 124.891 54.6586C124.891 56.9807 126.755 58.8631 129.054 58.8631Z" fill="white" fill-opacity="0.06"/>
<path d="M129.054 33.6366C131.353 33.6366 133.217 31.7542 133.217 29.4321C133.217 27.11 131.353 25.2275 129.054 25.2275C126.755 25.2275 124.891 27.11 124.891 29.4321C124.891 31.7542 126.755 33.6366 129.054 33.6366Z" fill="white" fill-opacity="0.06"/>
<path d="M79.0976 8.4091C81.3968 8.4091 83.2606 6.52666 83.2606 4.20455C83.2606 1.88244 81.3968 0 79.0976 0C76.7984 0 74.9345 1.88244 74.9345 4.20455C74.9345 6.52666 76.7984 8.4091 79.0976 8.4091Z" fill="white" fill-opacity="0.06"/>
<path d="M79.0976 58.8631C81.3968 58.8631 83.2606 56.9807 83.2606 54.6586C83.2606 52.3365 81.3968 50.454 79.0976 50.454C76.7984 50.454 74.9345 52.3365 74.9345 54.6586C74.9345 56.9807 76.7984 58.8631 79.0976 58.8631Z" fill="white" fill-opacity="0.06"/>
<path d="M278.924 8.4091C281.223 8.4091 283.087 6.52666 283.087 4.20455C283.087 1.88244 281.223 0 278.924 0C276.625 0 274.761 1.88244 274.761 4.20455C274.761 6.52666 276.625 8.4091 278.924 8.4091Z" fill="white" fill-opacity="0.06"/>
<path d="M278.924 58.8631C281.223 58.8631 283.087 56.9807 283.087 54.6586C283.087 52.3365 281.223 50.454 278.924 50.454C276.625 50.454 274.761 52.3365 274.761 54.6586C274.761 56.9807 276.625 58.8631 278.924 58.8631Z" fill="white" fill-opacity="0.06"/>
<path d="M79.0976 33.6366C81.3968 33.6366 83.2606 31.7542 83.2606 29.4321C83.2606 27.11 81.3968 25.2275 79.0976 25.2275C76.7984 25.2275 74.9345 27.11 74.9345 29.4321C74.9345 31.7542 76.7984 33.6366 79.0976 33.6366Z" fill="white" fill-opacity="0.06"/>
<path d="M278.924 33.6366C281.223 33.6366 283.087 31.7542 283.087 29.4321C283.087 27.11 281.223 25.2275 278.924 25.2275C276.625 25.2275 274.761 27.11 274.761 29.4321C274.761 31.7542 276.625 33.6366 278.924 33.6366Z" fill="white" fill-opacity="0.06"/>
<path d="M179.012 8.4091C181.311 8.4091 183.175 6.52666 183.175 4.20455C183.175 1.88244 181.311 0 179.012 0C176.713 0 174.849 1.88244 174.849 4.20455C174.849 6.52666 176.713 8.4091 179.012 8.4091Z" fill="white" fill-opacity="0.06"/>
<path d="M179.012 58.8631C181.311 58.8631 183.175 56.9807 183.175 54.6586C183.175 52.3365 181.311 50.454 179.012 50.454C176.713 50.454 174.849 52.3365 174.849 54.6586C174.849 56.9807 176.713 58.8631 179.012 58.8631Z" fill="white" fill-opacity="0.06"/>
<path d="M179.012 33.6366C181.311 33.6366 183.175 31.7542 183.175 29.4321C183.175 27.11 181.311 25.2275 179.012 25.2275C176.713 25.2275 174.849 27.11 174.849 29.4321C174.849 31.7542 176.713 33.6366 179.012 33.6366Z" fill="white" fill-opacity="0.06"/>
</g>
<defs>
<clipPath id="clip0_8_2">
<rect width="280" height="69" fill="white"/>
</clipPath>
</defs>
</svg>
